<?xml version="1.0" encoding="utf-8"?>
<!-- Generator: Adobe Illustrator 23.0.3, SVG Export Plug-In . SVG Version: 6.00 Build 0)  -->
<svg version="1.1" id="Capa_1" xmlns="http://www.w3.org/2000/svg" xmlns:xlink="http://www.w3.org/1999/xlink" x="0px" y="0px"
	 viewBox="0 0 512 512" style="enable-background:new 0 0 512 512;" xml:space="preserve">
<style type="text/css">
	.st0{fill:#FFFFFF;}
</style>
<g>
	<g>
		<path class="st0" d="M485.5,251.7h-58.9V98.1c0-23.6-19.1-42.6-42.7-42.7H128c-23.6,0-42.6,19.1-42.7,42.7v51.2H38.5
			C17.3,149.4,0,166.6,0,187.9V418c0,21.3,17.3,38.5,38.5,38.5h136.3c16.2,0,30.7-10.3,36.1-25.6h147.5c4.7,0,8.5-3.8,8.5-8.5v-17.1
			c0-14.1-11.5-25.6-25.6-25.6h-25.6v-34.1H384v84.5c0,14.6,11.8,26.5,26.5,26.5h75.1c14.6,0,26.5-11.8,26.5-26.5V278.2
			C512,263.6,500.2,251.7,485.5,251.7z M196.3,418c0,11.8-9.6,21.4-21.5,21.5H38.5c-11.8,0-21.4-9.6-21.5-21.5v-4.1h179.2L196.3,418
			L196.3,418z M196.3,396.8H17.1V209.1h179.2V396.8z M196.3,192H17.1v-4.1c0-11.8,9.6-21.4,21.5-21.5h136.3
			c11.8,0,21.4,9.6,21.5,21.5L196.3,192L196.3,192z M341.3,396.8c4.7,0,8.5,3.8,8.5,8.5v8.5H213.3v-17.1H341.3z M213.3,379.7v-34.1
			h85.3v34.1H213.3z M384,328.5h-76.8h-93.9v-25.6H384V328.5z M384,278.2v7.7H213.3v-98c0-21.3-17.3-38.5-38.5-38.5h-72.4V98.1
			c0-14.1,11.5-25.6,25.6-25.6h256c14.1,0,25.6,11.5,25.6,25.6v153.7C395.4,252.3,384,263.9,384,278.2z M494.9,430.1
			c0,5.2-4.2,9.4-9.4,9.4h-75.1c-5.2,0-9.4-4.2-9.4-9.4v-7.7h93.9V430.1z M494.9,405.3h-93.9V302.9h93.9V405.3z M494.9,285.9h-93.9
			v-7.7c0-5.2,4.2-9.4,9.4-9.4h75.1c5.2,0,9.4,4.2,9.4,9.4V285.9z"/>
	</g>
</g>
</svg>
