<?xml version="1.0" encoding="utf-8"?>
<!-- Generator: Adobe Illustrator 23.0.3, SVG Export Plug-In . SVG Version: 6.00 Build 0)  -->
<svg version="1.1" id="Layer_1" xmlns="http://www.w3.org/2000/svg" xmlns:xlink="http://www.w3.org/1999/xlink" x="0px" y="0px"
	 viewBox="0 0 81.2 81.2" style="enable-background:new 0 0 81.2 81.2;" xml:space="preserve">
<style type="text/css">
	.st0{fill:#FFFFFF;}
</style>
<title>media</title>
<g>
	<g id="Layer_1-2">
		<path class="st0" d="M18.9,50c-0.7,0-1.4,0.6-1.4,1.3v6.8c0,0.7,0.6,1.3,1.4,1.3s1.4-0.6,1.4-1.3v-6.8
			C20.3,50.7,19.7,50.1,18.9,50z"/>
		<path class="st0" d="M79.8,14.9h-4.1V1.4c0-0.7-0.6-1.3-1.3-1.4h-8.1c-0.7,0-1.3,0.6-1.3,1.4v13.5H1.4c-0.7,0-1.3,0.6-1.4,1.3
			v48.7c0,0.7,0.6,1.3,1.4,1.3h6.8v4.1c0,6,4.8,10.8,10.8,10.8c6,0,10.8-4.8,10.8-10.8v-4.1h50c0.7,0,1.3-0.6,1.3-1.3c0,0,0,0,0,0
			V16.2C81.2,15.5,80.6,14.9,79.8,14.9z M73.1,35.2h-5.4v-27h5.4V35.2z M72.4,37.9l-2,4.7l-2-4.7H72.4z M67.6,2.7h5.4v2.7h-5.4V2.7z
			 M7.6,17.6l-4.8,4.9v-4.9H7.6z M9.5,19.5v4.9H4.6L9.5,19.5z M27,70.3c0.2,4.5-3.3,8.2-7.8,8.4s-8.2-3.3-8.4-7.8c0-0.2,0-0.4,0-0.6
			V54.1c-0.2-4.5,3.3-8.2,7.8-8.4s8.2,3.3,8.4,7.8c0,0.2,0,0.4,0,0.6V70.3z M78.5,63.6H29.8v-9.5c0-6-4.8-10.8-10.8-10.8
			c-6,0-10.8,4.8-10.8,10.8v9.5H2.7V27h8.1c0.7,0,1.3-0.6,1.4-1.3c0,0,0,0,0,0v-8.1h52.8v18.9c0,0,0,0,0,0.1c0,0.1,0,0.3,0.1,0.4
			l0,0l0,0l4.1,9.5c0.3,0.7,1.1,1,1.8,0.7c0,0,0,0,0,0c0.3-0.1,0.6-0.4,0.7-0.7l4.1-9.5l0,0l0,0c0.1-0.1,0.1-0.3,0.1-0.5
			c0,0,0,0,0-0.1V17.6h2.7L78.5,63.6z"/>
		<path class="st0" d="M74.4,58.2h-2.7c-0.7,0-1.3,0.6-1.3,1.3c0,0.7,0.6,1.4,1.3,1.4h2.7c0.7,0,1.3-0.6,1.3-1.4
			C75.8,58.8,75.1,58.2,74.4,58.2z"/>
		<path class="st0" d="M66.3,58.2h-2.7c-0.7,0-1.3,0.6-1.3,1.3c0,0.7,0.6,1.4,1.3,1.4h2.7c0.7,0,1.3-0.6,1.3-1.4
			C67.6,58.8,67,58.2,66.3,58.2z"/>
		<path class="st0" d="M55.2,24.9c-0.5-0.6-1.3-0.7-1.9-0.2l-14,11.4L26.6,24.7c-0.5-0.4-1.2-0.5-1.7-0.1L7.3,36.8
			c-0.7,0.3-0.9,1.2-0.6,1.8c0.3,0.7,1.2,0.9,1.8,0.6c0.1,0,0.2-0.1,0.2-0.2h0.1l16.7-11.6l12.7,11.5c0.5,0.4,1.3,0.4,1.8,0L55,26.8
			C55.6,26.3,55.7,25.4,55.2,24.9C55.2,24.9,55.2,24.9,55.2,24.9L55.2,24.9z"/>
		<path class="st0" d="M51.2,42.6c-0.4-0.6-1.3-0.8-1.9-0.4c0,0,0,0-0.1,0c-0.1,0.1-0.2,0.2-0.3,0.3l-6.7,10.8
			c-0.4,0.6-0.2,1.5,0.4,1.9c0.2,0.1,0.5,0.2,0.7,0.2h13.5c0.7,0,1.4-0.6,1.4-1.3c0,0,0,0,0,0c0-0.3-0.1-0.5-0.2-0.7L51.2,42.6z
			 M45.7,52.8l4.3-6.9l4.3,6.9L45.7,52.8z"/>
	</g>
</g>
</svg>
