<?xml version="1.0" encoding="utf-8"?>
<!-- Generator: Adobe Illustrator 23.0.3, SVG Export Plug-In . SVG Version: 6.00 Build 0)  -->
<svg version="1.1" id="Layer_1" xmlns="http://www.w3.org/2000/svg" xmlns:xlink="http://www.w3.org/1999/xlink" x="0px" y="0px"
	 viewBox="0 0 44.2 44.2" style="enable-background:new 0 0 44.2 44.2;" xml:space="preserve">
<title>skratch</title>
<g>
	<g id="Layer_1-2">
		<path d="M21.5,8.9L27.4,3c1.7-1.7,3.9-2.8,6.3-3c3.4-0.3,6.8,1.3,8.8,4.1c0.9,1.3,1.5,2.8,1.7,4.3c0.5,3.1-0.6,6.2-2.8,8.4
			l-9.9,9.9c-3.8,3.8-10.1,3.9-13.9,0c0,0,0,0,0,0c-0.3-0.3-0.5-0.5-0.8-0.9c-0.5-0.6-0.4-1.5,0.2-2l0,0c0.6-0.6,1.6-0.6,2.2,0
			c0,0,0.1,0.1,0.1,0.1c0.2,0.2,0.3,0.4,0.5,0.6c1.3,1.3,3,2,4.8,2c1.8,0,3.5-0.7,4.8-2l9.8-9.8c1.2-1.1,1.9-2.7,2.1-4.3
			c0.2-2.7-1.2-5.3-3.7-6.6c-0.3-0.2-0.7-0.3-1-0.4c-2.4-0.8-5.1-0.1-6.9,1.7l-4.4,4.4l-1.6,1.6c-0.6,0.6-1.6,0.6-2.2,0l0,0
			C20.9,10.5,20.9,9.5,21.5,8.9z M22.6,35.4c0.6-0.6,0.6-1.6,0-2.2l0,0c-0.6-0.6-1.6-0.6-2.2,0l-5.9,5.9c-1.8,1.8-4.4,2.4-6.8,1.7
			c-0.3-0.1-0.7-0.2-1-0.4c-3.3-1.7-4.6-5.8-2.9-9.1c0.3-0.6,0.7-1.2,1.2-1.7l9.9-9.9c2.6-2.6,6.9-2.6,9.5,0c0,0,0,0,0,0
			c0.2,0.2,0.4,0.5,0.6,0.7c0.5,0.7,1.5,0.8,2.2,0.3c0.1,0,0.1-0.1,0.2-0.1l0,0c0.5-0.5,0.6-1.4,0.2-2c-0.3-0.4-0.6-0.7-0.9-1.1
			c-2-2-4.7-3-7.6-2.8c-2.5,0.2-4.8,1.3-6.5,3l-9.9,9.8c-3.8,3.8-3.8,10,0,13.9c3.8,3.8,10.1,3.9,13.9,0c0,0,0,0,0,0L22.6,35.4z"/>
	</g>
</g>
</svg>
