<?xml version="1.0" encoding="utf-8"?>
<!-- Generator: Adobe Illustrator 23.0.3, SVG Export Plug-In . SVG Version: 6.00 Build 0)  -->
<svg version="1.1" id="Layer_1" xmlns="http://www.w3.org/2000/svg" xmlns:xlink="http://www.w3.org/1999/xlink" x="0px" y="0px"
	 viewBox="0 0 66.3 58.2" style="enable-background:new 0 0 66.3 58.2;" xml:space="preserve">
<style type="text/css">
	.st0{fill:#FFFFFF;}
</style>
<title>slash</title>
<g>
	<g id="Layer_1-2">
		<path class="st0" d="M54.9,16.8c-1-1-2.5-1-3.5,0c-1,1-1,2.5,0,3.5l0,0l8.9,8.9L51.4,38c-1,0.9-1,2.4-0.1,3.4c0,0,0.1,0.1,0.1,0.1
			c0.5,0.5,1.1,0.7,1.7,0.7c0.6,0,1.3-0.3,1.7-0.7l10.6-10.6c1-0.9,1-2.4,0.1-3.4c0,0-0.1-0.1-0.1-0.1L54.9,16.8z"/>
		<path class="st0" d="M42.2,0.1c-1.3-0.4-2.6,0.3-3,1.6c0,0,0,0.1,0,0.1L24,55.1c-0.4,1.3,0.3,2.6,1.6,3c0,0,0.1,0,0.1,0
			c0.2,0.1,0.4,0.1,0.7,0.1c1.1,0,2.1-0.8,2.4-1.8L43.8,3.2c0.4-1.2-0.3-2.6-1.5-3C42.3,0.1,42.2,0.1,42.2,0.1z"/>
		<path class="st0" d="M14.8,16.8c-0.9-1-2.4-1-3.4-0.1c0,0,0,0-0.1,0.1L0.7,27.4c-1,0.9-1,2.4-0.1,3.4c0,0,0.1,0.1,0.1,0.1
			l10.6,10.6c0.5,0.5,1.1,0.7,1.7,0.7c0.7,0,1.3-0.3,1.7-0.7c1-0.9,1-2.4,0.1-3.4c0,0-0.1-0.1-0.1-0.1l-8.9-8.9l8.9-8.9
			C15.8,19.3,15.8,17.8,14.8,16.8C14.9,16.8,14.9,16.8,14.8,16.8z"/>
	</g>
</g>
</svg>
